STARTFONT 2.1
FONT -Misc-Fixed-Medium-R-Normal--16-160-75-75-M-80-ISO8859-1
SIZE 16 75 75
FONTBOUNDINGBOX 8 16 0 -1
STARTPROPERTIES 3
FONT_ASCENT 15
FONT_DESCENT 1
DEFAULT_CHAR 32
ENDPROPERTIES
CHARS 99
STARTCHAR space
ENCODING 32
SWIDTH 480 0
DWIDTH 4 0
BBX 1 1 0 0
BITMAP
00
ENDCHAR
STARTCHAR exclam
ENCODING 33
SWIDTH 480 0
DWIDTH 6 0
BBX 4 16 0 -1
BITMAP
00
30
30
30
30
30
30
30
30
30
30
00
00
30
30
00
ENDCHAR
STARTCHAR quotedbl
ENCODING 34
SWIDTH 480 0
DWIDTH 8 0
BBX 6 16 0 -1
BITMAP
00
FC
FC
6C
D8
00
00
00
00
00
00
00
00
00
00
00
ENDCHAR
STARTCHAR numbersign
ENCODING 35
SWIDTH 480 0
DWIDTH 7 0
BBX 8 16 0 -1
BITMAP
00
6C
6C
6C
FE
FE
6C
6C
6C
6C
FE
FE
6C
6C
6C
00
ENDCHAR
STARTCHAR dollar
ENCODING 36
SWIDTH 480 0
DWIDTH 8 0
BBX 7 16 0 -1
BITMAP
00
10
7C
FE
D6
D0
F0
78
3C
1E
16
D6
FE
7C
10
00
ENDCHAR
STARTCHAR percent
ENCODING 37
SWIDTH 480 0
DWIDTH 8 0
BBX 7 16 0 -1
BITMAP
00
72
FE
DE
DC
FC
78
18
30
3C
7E
76
F6
FE
9C
00
ENDCHAR
STARTCHAR ampersand
ENCODING 38
SWIDTH 480 0
DWIDTH 8 0
BBX 7 16 0 -1
BITMAP
00
70
F8
D8
D8
F8
F0
60
66
F6
FE
DE
DC
FE
76
00
ENDCHAR
STARTCHAR quotesingle
ENCODING 39
SWIDTH 480 0
DWIDTH 5 0
BBX 3 16 0 -1
BITMAP
00
E0
E0
60
C0
00
00
00
00
00
00
00
00
00
00
00
ENDCHAR
STARTCHAR parenleft
ENCODING 40
SWIDTH 480 0
DWIDTH 7 0
BBX 6 16 0 -1
BITMAP
00
0C
18
18
30
30
60
60
60
60
30
30
18
18
0C
00
ENDCHAR
STARTCHAR parenright
ENCODING 41
SWIDTH 480 0
DWIDTH 8 0
BBX 8 16 0 -1
BITMAP
00
C0
60
60
30
30
18
18
18
18
30
30
60
60
C0
00
ENDCHAR
STARTCHAR asterisk
ENCODING 42
SWIDTH 480 0
DWIDTH 9 0
BBX 8 16 0 -1
BITMAP
00
00
00
18
99
DB
7E
3C
18
3C
7E
DB
99
18
00
00
ENDCHAR
STARTCHAR plus
ENCODING 43
SWIDTH 480 0
DWIDTH 9 0
BBX 8 16 0 -1
BITMAP
00
00
00
00
18
18
18
18
FF
FF
18
18
18
18
00
00
ENDCHAR
STARTCHAR comma
ENCODING 44
SWIDTH 480 0
DWIDTH 6 0
BBX 4 16 0 -1
BITMAP
00
00
00
00
00
00
00
00
00
00
00
70
70
30
60
00
ENDCHAR
STARTCHAR hyphen
ENCODING 45
SWIDTH 480 0
DWIDTH 6 0
BBX 5 16 0 -1
BITMAP
00
00
00
00
00
00
00
00
F8
F8
00
00
00
00
00
00
ENDCHAR
STARTCHAR period
ENCODING 46
SWIDTH 480 0
DWIDTH 4 0
BBX 3 16 0 -1
BITMAP
00
00
00
00
00
00
00
00
00
00
00
00
E0
E0
00
00
ENDCHAR
STARTCHAR slash
ENCODING 47
SWIDTH 480 0
DWIDTH 8 0
BBX 7 16 0 -1
BITMAP
00
00
06
06
0C
0C
18
18
30
30
60
60
C0
C0
00
00
ENDCHAR
STARTCHAR zero
ENCODING 48
SWIDTH 480 0
DWIDTH 8 0
BBX 7 16 0 -1
BITMAP
00
7C
FE
C6
CE
CE
DE
D6
F6
E6
E6
C6
C6
FE
7C
00
ENDCHAR
STARTCHAR one
ENCODING 49
SWIDTH 480 0
DWIDTH 8 0
BBX 7 16 0 -1
BITMAP
00
18
38
78
18
18
18
18
18
18
18
18
18
18
7E
00
ENDCHAR
STARTCHAR two
ENCODING 50
SWIDTH 480 0
DWIDTH 8 0
BBX 7 16 0 -1
BITMAP
00
38
7C
EE
C6
C6
06
0C
18
30
60
C0
C6
FE
FE
00
ENDCHAR
STARTCHAR three
ENCODING 51
SWIDTH 480 0
DWIDTH 8 0
BBX 7 16 0 -1
BITMAP
00
38
7C
EE
C6
06
0C
1C
0C
06
C6
C6
EE
7C
38
00
ENDCHAR
STARTCHAR four
ENCODING 52
SWIDTH 480 0
DWIDTH 8 0
BBX 7 16 0 -1
BITMAP
00
0C
1C
1C
3C
3C
7C
6C
EC
CC
CC
FE
FE
0C
1E
00
ENDCHAR
STARTCHAR five
ENCODING 53
SWIDTH 480 0
DWIDTH 8 0
BBX 7 16 0 -1
BITMAP
00
FE
FE
C0
C0
F8
FC
CE
06
06
06
C6
EE
7C
38
00
ENDCHAR
STARTCHAR six
ENCODING 54
SWIDTH 480 0
DWIDTH 8 0
BBX 7 16 0 -1
BITMAP
00
38
7C
EE
C6
C0
F8
FC
EE
C6
C6
C6
EE
7C
38
00
ENDCHAR
STARTCHAR seven
ENCODING 55
SWIDTH 480 0
DWIDTH 8 0
BBX 7 16 0 -1
BITMAP
00
FE
FE
C6
C6
0E
0C
0C
1C
18
18
18
18
18
18
00
ENDCHAR
STARTCHAR eight
ENCODING 56
SWIDTH 480 0
DWIDTH 8 0
BBX 7 16 0 -1
BITMAP
00
38
7C
EE
C6
EE
7C
38
7C
EE
C6
C6
EE
7C
38
00
ENDCHAR
STARTCHAR nine
ENCODING 57
SWIDTH 480 0
DWIDTH 8 0
BBX 7 16 0 -1
BITMAP
00
38
7C
EE
C6
C6
C6
EE
7E
3E
06
C6
EE
7C
38
00
ENDCHAR
STARTCHAR colon
ENCODING 58
SWIDTH 480 0
DWIDTH 6 0
BBX 4 16 0 -1
BITMAP
00
00
00
70
70
00
00
00
00
00
00
70
70
00
00
00
ENDCHAR
STARTCHAR semicolon
ENCODING 59
SWIDTH 480 0
DWIDTH 6 0
BBX 4 16 0 -1
BITMAP
00
00
00
70
70
00
00
00
00
00
00
70
70
30
60
00
ENDCHAR
STARTCHAR less
ENCODING 60
SWIDTH 480 0
DWIDTH 8 0
BBX 7 16 0 -1
BITMAP
00
00
06
0C
18
30
60
C0
C0
60
30
18
0C
06
00
00
ENDCHAR
STARTCHAR equal
ENCODING 61
SWIDTH 480 0
DWIDTH 8 0
BBX 7 16 0 -1
BITMAP
00
00
00
00
00
FE
FE
00
00
FE
FE
00
00
00
00
00
ENDCHAR
STARTCHAR greater
ENCODING 62
SWIDTH 480 0
DWIDTH 8 0
BBX 7 16 0 -1
BITMAP
00
00
C0
60
30
18
0C
06
06
0C
18
30
60
C0
00
00
ENDCHAR
STARTCHAR question
ENCODING 63
SWIDTH 480 0
DWIDTH 9 0
BBX 8 16 0 -1
BITMAP
00
3C
7E
E7
C3
C3
07
0E
1C
18
18
00
00
18
18
00
ENDCHAR
STARTCHAR at
ENCODING 64
SWIDTH 480 0
DWIDTH 8 0
BBX 7 16 0 -1
BITMAP
00
38
6C
C6
DE
FE
FE
FE
FE
FE
FE
DC
C0
66
3C
00
ENDCHAR
STARTCHAR A
ENCODING 65
SWIDTH 480 0
DWIDTH 8 0
BBX 7 16 0 -1
BITMAP
00
10
38
7C
EE
C6
C6
C6
C6
FE
FE
C6
C6
C6
C6
00
ENDCHAR
STARTCHAR B
ENCODING 66
SWIDTH 480 0
DWIDTH 8 0
BBX 7 16 0 -1
BITMAP
00
F8
FC
CE
C6
C6
CE
FC
FC
CE
C6
C6
CE
FE
FC
00
ENDCHAR
STARTCHAR C
ENCODING 67
SWIDTH 480 0
DWIDTH 8 0
BBX 7 16 0 -1
BITMAP
00
38
7C
6E
C6
C0
C0
C0
C0
C0
C0
C6
6E
7C
38
00
ENDCHAR
STARTCHAR D
ENCODING 68
SWIDTH 480 0
DWIDTH 8 0
BBX 7 16 0 -1
BITMAP
00
F8
FC
CE
C6
C6
C6
C6
C6
C6
C6
C6
CE
FC
F8
00
ENDCHAR
STARTCHAR E
ENCODING 69
SWIDTH 480 0
DWIDTH 8 0
BBX 7 16 0 -1
BITMAP
00
FE
FE
C0
C0
C0
C0
FC
FC
C0
C0
C0
C0
FE
FE
00
ENDCHAR
STARTCHAR F
ENCODING 70
SWIDTH 480 0
DWIDTH 8 0
BBX 7 16 0 -1
BITMAP
00
FE
FE
C0
C0
C0
C0
FC
FC
C0
C0
C0
C0
C0
C0
00
ENDCHAR
STARTCHAR G
ENCODING 71
SWIDTH 480 0
DWIDTH 8 0
BBX 7 16 0 -1
BITMAP
00
38
7C
6E
C6
C0
C0
CE
CE
C6
C6
C6
6E
7E
3A
00
ENDCHAR
STARTCHAR H
ENCODING 72
SWIDTH 480 0
DWIDTH 8 0
BBX 7 16 0 -1
BITMAP
00
C6
C6
C6
C6
C6
C6
FE
FE
C6
C6
C6
C6
C6
C6
00
ENDCHAR
STARTCHAR I
ENCODING 73
SWIDTH 480 0
DWIDTH 5 0
BBX 4 16 0 -1
BITMAP
00
F0
60
60
60
60
60
60
60
60
60
60
60
60
F0
00
ENDCHAR
STARTCHAR J
ENCODING 74
SWIDTH 480 0
DWIDTH 8 0
BBX 7 16 0 -1
BITMAP
00
0E
06
06
06
06
06
06
06
06
C6
C6
EE
7C
38
00
ENDCHAR
STARTCHAR K
ENCODING 75
SWIDTH 480 0
DWIDTH 8 0
BBX 7 16 0 -1
BITMAP
00
C6
C6
CE
CC
DC
F8
F8
F8
D8
DC
CC
CE
C6
C6
00
ENDCHAR
STARTCHAR L
ENCODING 76
SWIDTH 480 0
DWIDTH 8 0
BBX 7 16 0 -1
BITMAP
00
C0
C0
C0
C0
C0
C0
C0
C0
C0
C0
C0
C0
FE
FE
00
ENDCHAR
STARTCHAR M
ENCODING 77
SWIDTH 480 0
DWIDTH 8 0
BBX 7 16 0 -1
BITMAP
00
C6
C6
EE
FE
FE
D6
C6
C6
C6
C6
C6
C6
C6
C6
00
ENDCHAR
STARTCHAR N
ENCODING 78
SWIDTH 480 0
DWIDTH 8 0
BBX 7 16 0 -1
BITMAP
00
C6
C6
E6
E6
F6
F6
FE
DE
DE
CE
CE
C6
C6
C6
00
ENDCHAR
STARTCHAR O
ENCODING 79
SWIDTH 480 0
DWIDTH 8 0
BBX 7 16 0 -1
BITMAP
00
38
7C
EE
C6
C6
C6
C6
C6
C6
C6
C6
EE
7C
38
00
ENDCHAR
STARTCHAR P
ENCODING 80
SWIDTH 480 0
DWIDTH 8 0
BBX 7 16 0 -1
BITMAP
00
F8
FC
CE
C6
C6
CE
FC
F8
C0
C0
C0
C0
C0
C0
00
ENDCHAR
STARTCHAR Q
ENCODING 81
SWIDTH 480 0
DWIDTH 8 0
BBX 7 16 0 -1
BITMAP
00
38
7C
EE
C6
C6
C6
C6
F6
FE
DE
CE
EE
7C
3E
00
ENDCHAR
STARTCHAR R
ENCODING 82
SWIDTH 480 0
DWIDTH 8 0
BBX 7 16 0 -1
BITMAP
00
F8
FC
CE
C6
C6
CE
FC
F8
F8
DC
CC
CE
C6
C6
00
ENDCHAR
STARTCHAR S
ENCODING 83
SWIDTH 480 0
DWIDTH 8 0
BBX 7 16 0 -1
BITMAP
00
38
7C
EE
C6
C6
E0
78
3C
0E
06
C6
EE
7C
38
00
ENDCHAR
STARTCHAR T
ENCODING 84
SWIDTH 480 0
DWIDTH 9 0
BBX 8 16 0 -1
BITMAP
00
FF
FF
18
18
18
18
18
18
18
18
18
18
18
18
00
ENDCHAR
STARTCHAR U
ENCODING 85
SWIDTH 480 0
DWIDTH 8 0
BBX 7 16 0 -1
BITMAP
00
C6
C6
C6
C6
C6
C6
C6
C6
C6
C6
C6
C6
FE
7C
00
ENDCHAR
STARTCHAR V
ENCODING 86
SWIDTH 480 0
DWIDTH 8 0
BBX 7 16 0 -1
BITMAP
00
C6
C6
C6
C6
C6
C6
C6
C6
6C
7C
38
38
10
10
00
ENDCHAR
STARTCHAR W
ENCODING 87
SWIDTH 480 0
DWIDTH 8 0
BBX 7 16 0 -1
BITMAP
00
C6
C6
C6
C6
C6
D6
D6
D6
FE
FE
7C
7C
6C
6C
00
ENDCHAR
STARTCHAR X
ENCODING 88
SWIDTH 480 0
DWIDTH 8 0
BBX 7 16 0 -1
BITMAP
00
C6
C6
C6
C6
6C
6C
38
38
6C
6C
C6
C6
C6
C6
00
ENDCHAR
STARTCHAR Y
ENCODING 89
SWIDTH 480 0
DWIDTH 9 0
BBX 8 16 0 -1
BITMAP
00
C3
C3
C3
C3
C3
E7
7E
3C
18
18
18
18
18
18
00
ENDCHAR
STARTCHAR Z
ENCODING 90
SWIDTH 480 0
DWIDTH 8 0
BBX 7 16 0 -1
BITMAP
00
FE
FE
06
0C
0C
18
18
30
30
60
60
C0
FE
FE
00
ENDCHAR
STARTCHAR bracketleft
ENCODING 91
SWIDTH 480 0
DWIDTH 6 0
BBX 5 16 0 -1
BITMAP
00
78
78
60
60
60
60
60
60
60
60
60
60
78
78
00
ENDCHAR
STARTCHAR backslash
ENCODING 92
SWIDTH 480 0
DWIDTH 8 0
BBX 8 16 0 -1
BITMAP
00
00
C0
C0
60
60
30
30
18
18
0C
0C
06
06
00
00
ENDCHAR
STARTCHAR bracketright
ENCODING 93
SWIDTH 480 0
DWIDTH 6 0
BBX 4 16 0 -1
BITMAP
00
F0
F0
30
30
30
30
30
30
30
30
30
30
F0
F0
00
ENDCHAR
STARTCHAR asciicircum
ENCODING 94
SWIDTH 480 0
DWIDTH 8 0
BBX 7 16 0 -1
BITMAP
00
10
38
6C
C6
00
00
00
00
00
00
00
00
00
00
00
ENDCHAR
STARTCHAR underscore
ENCODING 95
SWIDTH 480 0
DWIDTH 8 0
BBX 7 16 0 -1
BITMAP
00
00
00
00
00
00
00
00
00
00
00
00
00
FE
FE
00
ENDCHAR
STARTCHAR grave
ENCODING 96
SWIDTH 480 0
DWIDTH 6 0
BBX 5 16 0 -1
BITMAP
00
70
30
18
00
00
00
00
00
00
00
00
00
00
00
00
ENDCHAR
STARTCHAR a
ENCODING 97
SWIDTH 480 0
DWIDTH 8 0
BBX 7 16 0 -1
BITMAP
00
00
00
00
00
7C
FE
C6
06
7E
FE
CE
DE
FE
76
00
ENDCHAR
STARTCHAR b
ENCODING 98
SWIDTH 480 0
DWIDTH 8 0
BBX 7 16 0 -1
BITMAP
00
00
C0
C0
C0
C0
D8
FC
EE
C6
C6
C6
EE
FC
D8
00
ENDCHAR
STARTCHAR c
ENCODING 99
SWIDTH 480 0
DWIDTH 8 0
BBX 7 16 0 -1
BITMAP
00
00
00
00
00
38
7C
EE
C6
C0
C0
C6
EE
7C
38
00
ENDCHAR
STARTCHAR d
ENCODING 100
SWIDTH 480 0
DWIDTH 8 0
BBX 7 16 0 -1
BITMAP
00
00
06
06
06
06
36
7E
EE
C6
C6
C6
EE
7E
36
00
ENDCHAR
STARTCHAR e
ENCODING 101
SWIDTH 480 0
DWIDTH 8 0
BBX 7 16 0 -1
BITMAP
00
00
00
00
00
38
7C
EE
C6
FE
FE
C0
E6
7E
3C
00
ENDCHAR
STARTCHAR f
ENCODING 102
SWIDTH 480 0
DWIDTH 7 0
BBX 6 16 0 -1
BITMAP
00
18
3C
30
30
FC
FC
30
30
30
30
30
30
30
30
00
ENDCHAR
STARTCHAR g
ENCODING 103
SWIDTH 480 0
DWIDTH 8 0
BBX 7 16 0 -1
BITMAP
00
00
00
00
00
3A
7E
EE
C6
EE
7E
3E
C6
EE
7C
38
ENDCHAR
STARTCHAR h
ENCODING 104
SWIDTH 480 0
DWIDTH 8 0
BBX 7 16 0 -1
BITMAP
00
C0
C0
C0
C0
C0
DC
FE
E6
C6
C6
C6
C6
C6
C6
00
ENDCHAR
STARTCHAR i
ENCODING 105
SWIDTH 480 0
DWIDTH 3 0
BBX 2 16 0 -1
BITMAP
00
00
00
C0
C0
00
00
C0
C0
C0
C0
C0
C0
C0
C0
00
ENDCHAR
STARTCHAR j
ENCODING 106
SWIDTH 480 0
DWIDTH 6 0
BBX 5 16 0 -1
BITMAP
00
00
00
18
18
00
00
18
18
18
18
18
18
D8
F8
70
ENDCHAR
STARTCHAR k
ENCODING 107
SWIDTH 480 0
DWIDTH 8 0
BBX 7 16 0 -1
BITMAP
00
00
C0
C0
C0
C6
CC
D8
F0
E0
F0
F8
DC
CE
C6
00
ENDCHAR
STARTCHAR l
ENCODING 108
SWIDTH 480 0
DWIDTH 4 0
BBX 3 16 0 -1
BITMAP
00
E0
60
60
60
60
60
60
60
60
60
60
60
60
60
00
ENDCHAR
STARTCHAR m
ENCODING 109
SWIDTH 480 0
DWIDTH 8 0
BBX 7 16 0 -1
BITMAP
00
00
00
00
00
CC
FE
FE
D6
D6
D6
D6
D6
D6
D6
00
ENDCHAR
STARTCHAR n
ENCODING 110
SWIDTH 480 0
DWIDTH 8 0
BBX 7 16 0 -1
BITMAP
00
00
00
00
00
DC
FE
E6
C6
C6
C6
C6
C6
C6
C6
00
ENDCHAR
STARTCHAR o
ENCODING 111
SWIDTH 480 0
DWIDTH 8 0
BBX 7 16 0 -1
BITMAP
00
00
00
00
00
38
7C
EE
C6
C6
C6
C6
EE
7C
38
00
ENDCHAR
STARTCHAR p
ENCODING 112
SWIDTH 480 0
DWIDTH 8 0
BBX 7 16 0 -1
BITMAP
00
00
00
00
00
D8
FC
EE
C6
C6
C6
EE
FC
D8
C0
C0
ENDCHAR
STARTCHAR q
ENCODING 113
SWIDTH 480 0
DWIDTH 8 0
BBX 7 16 0 -1
BITMAP
00
00
00
00
00
36
7E
EE
C6
C6
C6
EE
7E
36
06
06
ENDCHAR
STARTCHAR r
ENCODING 114
SWIDTH 480 0
DWIDTH 8 0
BBX 7 16 0 -1
BITMAP
00
00
00
00
00
D8
FC
E6
C6
C0
C0
C0
C0
C0
C0
00
ENDCHAR
STARTCHAR s
ENCODING 115
SWIDTH 480 0
DWIDTH 8 0
BBX 7 16 0 -1
BITMAP
00
00
00
00
00
7C
FE
C6
C0
FC
7E
06
C6
FE
7C
00
ENDCHAR
STARTCHAR t
ENCODING 116
SWIDTH 480 0
DWIDTH 7 0
BBX 6 16 0 -1
BITMAP
00
00
30
30
30
FC
FC
30
30
30
30
30
34
3C
18
00
ENDCHAR
STARTCHAR u
ENCODING 117
SWIDTH 480 0
DWIDTH 8 0
BBX 7 16 0 -1
BITMAP
00
00
00
00
00
C6
C6
C6
C6
C6
C6
C6
CE
FE
76
00
ENDCHAR
STARTCHAR v
ENCODING 118
SWIDTH 480 0
DWIDTH 8 0
BBX 7 16 0 -1
BITMAP
00
00
00
00
00
C6
C6
C6
C6
C6
C6
EE
7C
38
10
00
ENDCHAR
STARTCHAR w
ENCODING 119
SWIDTH 480 0
DWIDTH 8 0
BBX 7 16 0 -1
BITMAP
00
00
00
00
00
C6
C6
C6
D6
D6
D6
FE
7C
6C
6C
00
ENDCHAR
STARTCHAR x
ENCODING 120
SWIDTH 480 0
DWIDTH 8 0
BBX 7 16 0 -1
BITMAP
00
00
00
00
00
C6
EE
6C
7C
38
38
7C
6C
EE
C6
00
ENDCHAR
STARTCHAR y
ENCODING 121
SWIDTH 480 0
DWIDTH 8 0
BBX 7 16 0 -1
BITMAP
00
00
00
00
00
C6
C6
C6
C6
C6
E6
7E
3E
1C
38
70
ENDCHAR
STARTCHAR z
ENCODING 122
SWIDTH 480 0
DWIDTH 8 0
BBX 7 16 0 -1
BITMAP
00
00
00
00
00
FE
FE
0C
18
30
60
C0
C0
FE
FE
00
ENDCHAR
STARTCHAR braceleft
ENCODING 123
SWIDTH 480 0
DWIDTH 7 0
BBX 6 16 0 -1
BITMAP
00
1C
38
30
30
30
30
60
60
30
30
30
30
38
1C
00
ENDCHAR
STARTCHAR bar
ENCODING 124
SWIDTH 480 0
DWIDTH 5 0
BBX 3 16 0 -1
BITMAP
60
60
60
60
60
60
60
60
60
60
60
60
60
60
60
60
ENDCHAR
STARTCHAR bracefight
ENCODING 125
SWIDTH 480 0
DWIDTH 7 0
BBX 5 16 0 -1
BITMAP
00
E0
70
30
30
30
30
18
18
30
30
30
30
70
E0
00
ENDCHAR
STARTCHAR asciitilde
ENCODING 126
SWIDTH 480 0
DWIDTH 9 0
BBX 8 16 0 -1
BITMAP
00
00
00
00
00
60
F0
99
0F
06
00
00
00
00
00
00
ENDCHAR
STARTCHAR degree
ENCODING 176
SWIDTH 480 0
DWIDTH 7 0
BBX 5 16 0 -1
BITMAP
00
70
D8
D8
70
00
00
00
00
00
00
00
00
00
00
00
ENDCHAR
STARTCHAR micro
ENCODING 181
SWIDTH 480 0
DWIDTH 9 0
BBX 8 16 0 -1
BITMAP
00
00
00
00
00
63
63
63
63
63
63
77
7F
7D
E0
E0
ENDCHAR
STARTCHAR periodcentered
ENCODING 183
SWIDTH 480 0
DWIDTH 4 0
BBX 3 16 0 -1
BITMAP
00
00
00
00
00
00
00
E0
E0
00
00
00
00
00
00
00
ENDCHAR
STARTCHAR ohm
ENCODING 937
SWIDTH 480 0
DWIDTH 8 0
BBX 7 16 0 -1
BITMAP
00
38
7C
EE
C6
C6
C6
C6
C6
C6
EE
6C
AA
EE
EE
00
ENDCHAR
ENDFONT
